<svg width="32" height="32" viewBox="0 0 32 32" fill="none" xmlns="http://www.w3.org/2000/svg">
<path fill-rule="evenodd" clip-rule="evenodd" d="M16 5.86875e-05C7.16348 5.86875e-05 5.86875e-05 7.16348 5.86875e-05 16C5.86875e-05 24.8365 7.16348 32 16 32C24.8365 32 32 24.8365 32 16C31.9906 7.16735 24.8327 0.00938594 16 5.86875e-05ZM16 29.5384C8.52295 29.5384 2.46159 23.4771 2.46159 16C2.46159 8.52295 8.52295 2.46159 16 2.46159C23.4771 2.46159 29.5384 8.52295 29.5384 16C29.5299 23.4736 23.4736 29.5299 16 29.5384ZM8.61542 12.9231C8.61542 11.9035 9.44196 11.0769 10.4616 11.0769C11.4812 11.0769 12.3077 11.9035 12.3077 12.9231C12.3077 13.9427 11.4812 14.7692 10.4616 14.7692C9.44196 14.7692 8.61542 13.9427 8.61542 12.9231ZM23.3846 12.9231C23.3846 13.9427 22.5581 14.7692 21.5385 14.7692C20.5189 14.7692 19.6923 13.9427 19.6923 12.9231C19.6923 11.9035 20.5189 11.0769 21.5385 11.0769C22.5581 11.0769 23.3846 11.9035 23.3846 12.9231ZM23.22 20.3077C21.6369 23.0446 19.0046 24.6154 16 24.6154C12.9954 24.6154 10.3646 23.0461 8.78157 20.3077C8.53904 19.9262 8.52519 19.4424 8.74551 19.0476C8.96583 18.6528 9.38484 18.4106 9.83689 18.4168C10.2889 18.4229 10.7012 18.6763 10.9108 19.0769C12.06 21.0631 13.8662 22.1538 16 22.1538C18.1338 22.1538 19.94 21.0615 21.0877 19.0769C21.4275 18.4881 22.1804 18.2863 22.7692 18.6262C23.358 18.966 23.5598 19.7189 23.22 20.3077Z" fill="#8C825E"/>
</svg>
