<svg width="37" height="30" viewBox="0 0 37 30" fill="none" xmlns="http://www.w3.org/2000/svg">
<path fill-rule="evenodd" clip-rule="evenodd" d="M34.5333 3.70006H30.8333V2.46672C30.8333 1.10442 29.729 5.73096e-05 28.3667 5.73096e-05H8.63333C7.27102 5.73096e-05 6.16666 1.10442 6.16666 2.46672V3.70006H2.46666C1.10436 3.70006 -7.1035e-06 4.80442 -7.1035e-06 6.16672V8.63339C-7.1035e-06 12.0391 2.7609 14.8001 6.16666 14.8001H6.72937C8.21428 19.5059 12.3572 22.8766 17.2667 23.3733V27.1334H13.5667C12.8855 27.1334 12.3333 27.6856 12.3333 28.3667C12.3333 29.0479 12.8855 29.6001 13.5667 29.6001H23.4333C24.1145 29.6001 24.6667 29.0479 24.6667 28.3667C24.6667 27.6856 24.1145 27.1334 23.4333 27.1334H19.7333V23.3686C24.6574 22.8707 28.7428 19.4158 30.229 14.8001H30.8333C34.2391 14.8001 37 12.0391 37 8.63339V6.16672C37 4.80442 35.8956 3.70006 34.5333 3.70006ZM6.16666 12.3334C4.12321 12.3334 2.46666 10.6768 2.46666 8.63339V6.16672H6.16666V11.1001C6.16666 11.5112 6.1867 11.9223 6.22679 12.3334H6.16666ZM28.3667 10.9613C28.3667 16.4373 23.9745 20.9266 18.5755 20.9667H18.5C13.0508 20.9667 8.63333 16.5493 8.63333 11.1001V2.46672H28.3667V10.9613ZM34.5333 8.63339C34.5333 10.6768 32.8768 12.3334 30.8333 12.3334H30.7562C30.8069 11.8778 30.8326 11.4197 30.8333 10.9613V6.16672H34.5333V8.63339Z" fill="#8C825E"/>
</svg>
