<svg width="32" height="32" viewBox="0 0 32 32" fill="none" xmlns="http://www.w3.org/2000/svg">
<path fill-rule="evenodd" clip-rule="evenodd" d="M17.8462 15.9941C17.8462 17.0137 17.0197 17.8402 16.0001 17.8402C14.9805 17.8402 14.1539 17.0137 14.1539 15.9941C14.1539 14.9745 14.9805 14.1479 16.0001 14.1479C17.0197 14.1479 17.8462 14.9745 17.8462 15.9941ZM9.23089 14.1479C8.21129 14.1479 7.38474 14.9745 7.38474 15.9941C7.38474 17.0137 8.21129 17.8402 9.23089 17.8402C10.2505 17.8402 11.077 17.0137 11.077 15.9941C11.077 14.9745 10.2505 14.1479 9.23089 14.1479ZM22.7693 14.1479C21.7497 14.1479 20.9231 14.9745 20.9231 15.9941C20.9231 17.0137 21.7497 17.8402 22.7693 17.8402C23.7888 17.8402 24.6154 17.0137 24.6154 15.9941C24.6154 14.9745 23.7888 14.1479 22.7693 14.1479ZM32 15.9941C32.0012 21.613 29.0549 26.8207 24.238 29.7137C19.4211 32.6067 13.4397 32.761 8.48012 30.1201L3.2417 31.8663C2.35711 32.1613 1.38177 31.9311 0.722408 31.2717C0.0630451 30.6124 -0.167128 29.637 0.127872 28.7525L1.87401 23.514C-1.25234 17.6361 -0.412137 10.4365 3.98369 5.43642C8.37951 0.436346 15.4122 -1.31913 21.6422 1.02856C27.8721 3.37626 31.9972 9.33646 32 15.9941ZM29.5384 15.9941C29.5368 10.3023 25.9753 5.21932 20.6261 3.27444C15.2769 1.32956 9.28246 2.93815 5.62559 7.29979C1.96872 11.6614 1.43045 17.8446 4.27861 22.7725C4.45504 23.0778 4.49201 23.4442 4.38015 23.7786L2.4617 29.5324L8.21551 27.614C8.34083 27.5713 8.47233 27.5494 8.60474 27.5494C8.82089 27.5498 9.03314 27.6071 9.22012 27.7155C13.4091 30.1392 18.5732 30.1424 22.7652 27.7241C26.9572 25.3058 29.5395 20.8337 29.5384 15.9941Z" fill="#8C825E"/>
</svg>
