<svg width="37" height="30" viewBox="0 0 37 30" fill="none" xmlns="http://www.w3.org/2000/svg">
<path fill-rule="evenodd" clip-rule="evenodd" d="M34.5333 3.69997H30.8333V2.46664C30.8333 1.10434 29.729 -2.43846e-05 28.3667 -2.43846e-05H8.63335C7.27105 -2.43846e-05 6.16668 1.10434 6.16668 2.46664V3.69997H2.46668C1.10438 3.69997 1.96033e-05 4.80434 1.96033e-05 6.16664V8.6333C1.96033e-05 12.0391 2.76093 14.8 6.16668 14.8H6.72939C8.2143 19.5058 12.3572 22.8765 17.2667 23.3732V27.1333H13.5667C12.8855 27.1333 12.3333 27.6855 12.3333 28.3666C12.3333 29.0478 12.8855 29.6 13.5667 29.6H23.4333C24.1145 29.6 24.6667 29.0478 24.6667 28.3666C24.6667 27.6855 24.1145 27.1333 23.4333 27.1333H19.7333V23.3685C24.6574 22.8706 28.7428 19.4157 30.229 14.8H30.8333C34.2391 14.8 37 12.0391 37 8.6333V6.16664C37 4.80434 35.8956 3.69997 34.5333 3.69997ZM6.16668 12.3333C4.12323 12.3333 2.46668 10.6768 2.46668 8.6333V6.16664H6.16668V11.1C6.16668 11.5111 6.18672 11.9222 6.22681 12.3333H6.16668ZM34.5333 8.6333C34.5333 10.6768 32.8768 12.3333 30.8333 12.3333H30.7562C30.8069 11.8777 30.8326 11.4196 30.8333 10.9612V6.16664H34.5333V8.6333Z" fill="#17170F"/>
</svg>
