<svg width="32" height="32" viewBox="0 0 32 32" fill="none" xmlns="http://www.w3.org/2000/svg">
<path fill-rule="evenodd" clip-rule="evenodd" d="M16.0034 9.61176e-06C10.3845 -0.00121661 5.17677 2.94508 2.28375 7.76195C-0.609275 12.5788 -0.763543 18.5602 1.87733 23.5198L0.131192 28.7582C-0.163808 29.6428 0.0663649 30.6182 0.725727 31.2775C1.38509 31.9369 2.36043 32.1671 3.24501 31.8721L8.48344 30.1259C14.3613 33.2523 21.561 32.4121 26.561 28.0163C31.5611 23.6204 33.3166 16.5877 30.9689 10.3578C28.6212 4.12786 22.661 0.00274031 16.0034 9.61176e-06ZM9.2342 17.846C8.2146 17.846 7.38806 17.0195 7.38806 15.9999C7.38806 14.9803 8.2146 14.1537 9.2342 14.1537C10.2538 14.1537 11.0803 14.9803 11.0803 15.9999C11.0803 17.0195 10.2538 17.846 9.2342 17.846ZM16.0034 17.846C14.9838 17.846 14.1572 17.0195 14.1572 15.9999C14.1572 14.9803 14.9838 14.1537 16.0034 14.1537C17.023 14.1537 17.8495 14.9803 17.8495 15.9999C17.8495 17.0195 17.023 17.846 16.0034 17.846ZM22.7726 17.846C21.753 17.846 20.9264 17.0195 20.9264 15.9999C20.9264 14.9803 21.753 14.1537 22.7726 14.1537C23.7922 14.1537 24.6187 14.9803 24.6187 15.9999C24.6187 17.0195 23.7922 17.846 22.7726 17.846Z" fill="#17170F"/>
</svg>
