<svg width="39" height="25" viewBox="0 0 39 25" fill="none" xmlns="http://www.w3.org/2000/svg">
<path fill-rule="evenodd" clip-rule="evenodd" d="M17.8385 17.0421C21.251 14.7703 22.7735 10.5321 21.5868 6.60818C20.4001 2.68422 16.7841 3.70165e-05 12.6846 3.70165e-05C8.5851 3.70165e-05 4.96909 2.68422 3.78238 6.60818C2.59567 10.5321 4.11818 14.7703 7.53061 17.0421C4.52424 18.1502 1.95674 20.2006 0.211198 22.8874C-0.0384758 23.2585 -0.0689773 23.7353 0.131375 24.1352C0.331728 24.535 0.731887 24.796 1.17859 24.8182C1.6253 24.8404 2.04933 24.6203 2.28829 24.2422C4.57589 20.7238 8.48786 18.6011 12.6846 18.6011C16.8813 18.6011 20.7933 20.7238 23.0809 24.2422C23.4593 24.8047 24.2193 24.959 24.7872 24.5886C25.355 24.2182 25.5202 23.4605 25.158 22.8874C23.4124 20.2006 20.8449 18.1502 17.8385 17.0421ZM5.86429 9.30421C5.86429 5.53746 8.91784 2.48392 12.6846 2.48392C16.4513 2.48392 19.5049 5.53746 19.5049 9.30421C19.5049 13.0709 16.4513 16.1245 12.6846 16.1245C8.91961 16.1202 5.86856 13.0692 5.86429 9.30421ZM38.4374 24.6034C37.8638 24.9774 37.0956 24.8157 36.7215 24.2422C34.4364 20.7214 30.5224 18.599 26.3252 18.6046C25.6403 18.6046 25.0851 18.0494 25.0851 17.3645C25.0851 16.6797 25.6403 16.1245 26.3252 16.1245C29.072 16.1219 31.5492 14.4718 32.6099 11.938C33.6707 9.40431 33.108 6.48151 31.1823 4.52275C29.2566 2.564 26.3438 1.95161 23.7924 2.96909C23.3782 3.14811 22.8995 3.08809 22.5424 2.81235C22.1853 2.53662 22.0062 2.08869 22.0746 1.64275C22.143 1.1968 22.4483 0.823206 22.8716 0.667238C27.2939 -1.09642 32.334 0.764387 34.5492 4.97862C36.7644 9.19285 35.4394 14.3995 31.4791 17.0421C34.4855 18.1502 37.053 20.2006 38.7985 22.8874C39.1726 23.461 39.0109 24.2292 38.4374 24.6034Z" fill="#8C825E"/>
</svg>
