<?xml version="1.0" encoding="UTF-8"?>
<svg width="512" height="512" viewBox="0 0 512 512" fill="none" xmlns="http://www.w3.org/2000/svg">
  <rect width="512" height="512" rx="128" fill="#667EEA"/>
  <path d="M256 128C309.019 128 352 170.981 352 224C352 277.019 309.019 320 256 320C202.981 320 160 277.019 160 224C160 170.981 202.981 128 256 128Z" fill="white"/>
  <path d="M384 352C384 387.346 355.346 416 320 416H192C156.654 416 128 387.346 128 352V320C128 302.327 142.327 288 160 288H352C369.673 288 384 302.327 384 320V352Z" fill="white"/>
</svg> 